HIERARCHY
ROOT Hips
{
    OFFSET   0.000000   0.000000   0.000000
    CHANNELS 6 Xposition Yposition Zposition Zrotation Xrotation Yrotation
    JOINT Chest
    {
        OFFSET   0.000000   8.007230   0.000000
        CHANNELS 3 Zrotation Xrotation Yrotation
        JOINT Chest2
        {
            OFFSET   0.000000  22.077100   0.000000
            CHANNELS 3 Zrotation Xrotation Yrotation
            JOINT Neck
            {
                OFFSET   0.000000  23.254800  -0.000021
                CHANNELS 3 Zrotation Xrotation Yrotation
                JOINT Head
                {
                    OFFSET   0.000000  14.370000   1.956610
                    CHANNELS 3 Zrotation Xrotation Yrotation
                    End Site
                    {
                        OFFSET   0.000000  19.566000   0.000000
                    }
                }
            }
            JOINT LeftCollar
            {
                OFFSET   3.911900  19.017000  -0.467063
                CHANNELS 3 Zrotation Xrotation Yrotation
                JOINT LeftShoulder
                {
                    OFFSET  10.383700   0.000000   0.000000
                    CHANNELS 3 Zrotation Xrotation Yrotation
                    JOINT LeftElbow
                    {
                        OFFSET  26.662100   0.001529   0.000325
                        CHANNELS 3 Zrotation Xrotation Yrotation
                        JOINT LeftWrist
                        {
                            OFFSET  28.869000  -0.000011  -0.000096
                            CHANNELS 3 Zrotation Xrotation Yrotation
                            JOINT LeftFinger0
                            {
                                OFFSET   2.044650  -2.323460   3.252850
                                CHANNELS 3 Zrotation Xrotation Yrotation
                                JOINT LeftFinger01
                                {
                                    OFFSET   3.088130   0.000000   0.000000
                                    CHANNELS 3 Zrotation Xrotation Yrotation
                                    JOINT LeftFinger02
                                    {
                                        OFFSET   2.639460   0.000000   0.000000
                                        CHANNELS 3 Zrotation Xrotation Yrotation
                                        End Site
                                        {
                                            OFFSET   2.582190   0.000000   0.000000
                                        }
                                    }
                                }
                            }
                            JOINT LeftFinger1
                            {
                                OFFSET   8.364480   0.000000   3.252850
                                CHANNELS 3 Zrotation Xrotation Yrotation
                                JOINT LeftFinger11
                                {
                                    OFFSET   4.646930   0.000000   0.000000
                                    CHANNELS 3 Zrotation Xrotation Yrotation
                                    JOINT LeftFinger12
                                    {
                                        OFFSET   2.323460   0.000000   0.000000
                                        CHANNELS 3 Zrotation Xrotation Yrotation
                                        End Site
                                        {
                                            OFFSET   2.273050   0.000000   0.000000
                                        }
                                    }
                                }
                            }
                            JOINT LeftFinger2
                            {
                                OFFSET   8.364480   0.000016   1.078090
                                CHANNELS 3 Zrotation Xrotation Yrotation
                                JOINT LeftFinger21
                                {
                                    OFFSET   5.111620   0.000000   0.000000
                                    CHANNELS 3 Zrotation Xrotation Yrotation
                                    JOINT LeftFinger22
                                    {
                                        OFFSET   2.788160   0.000017   0.000000
                                        CHANNELS 3 Zrotation Xrotation Yrotation
                                        End Site
                                        {
                                            OFFSET   2.727660   0.000000   0.000000
                                        }
                                    }
                                }
                            }
                            JOINT LeftFinger3
                            {
                                OFFSET   7.899780   0.000015  -1.078090
                                CHANNELS 3 Zrotation Xrotation Yrotation
                                JOINT LeftFinger31
                                {
                                    OFFSET   4.646920   0.000000   0.000000
                                    CHANNELS 3 Zrotation Xrotation Yrotation
                                    JOINT LeftFinger32
                                    {
                                        OFFSET   2.323470   0.000000   0.000000
                                        CHANNELS 3 Zrotation Xrotation Yrotation
                                        End Site
                                        {
                                            OFFSET   2.273050   0.000000   0.000000
                                        }
                                    }
                                }
                            }
                            JOINT LeftFinger4
                            {
                                OFFSET   7.435090   0.000000  -3.252850
                                CHANNELS 3 Zrotation Xrotation Yrotation
                                JOINT LeftFinger41
                                {
                                    OFFSET   3.717550   0.000000   0.000000
                                    CHANNELS 3 Zrotation Xrotation Yrotation
                                    JOINT LeftFinger42
                                    {
                                        OFFSET   1.858760   0.000000   0.000000
                                        CHANNELS 3 Zrotation Xrotation Yrotation
                                        End Site
                                        {
                                            OFFSET   1.818440   0.000000   0.000000
                                        }
                                    }
                                }
                            }
                        }
                    }
                }
            }
            JOINT RightCollar
            {
                OFFSET  -3.911900  19.017000  -0.467062
                CHANNELS 3 Zrotation Xrotation Yrotation
                JOINT RightShoulder
                {
                    OFFSET -10.383700   0.000015   0.000000
                    CHANNELS 3 Zrotation Xrotation Yrotation
                    JOINT RightElbow
                    {
                        OFFSET -26.662100   0.001341   0.000385
                        CHANNELS 3 Zrotation Xrotation Yrotation
                        JOINT RightWrist
                        {
                            OFFSET -28.869000   0.000025  -0.000080
                            CHANNELS 3 Zrotation Xrotation Yrotation
                            JOINT RightFinger0
                            {
                                OFFSET  -2.044650  -2.323490   3.252850
                                CHANNELS 3 Zrotation Xrotation Yrotation
                                JOINT RightFinger01
                                {
                                    OFFSET  -3.088130   0.000000   0.000000
                                    CHANNELS 3 Zrotation Xrotation Yrotation
                                    JOINT RightFinger02
                                    {
                                        OFFSET  -2.639460   0.000000   0.000000
                                        CHANNELS 3 Zrotation Xrotation Yrotation
                                        End Site
                                        {
                                            OFFSET  -2.582190   0.000000   0.000000
                                        }
                                    }
                                }
                            }
                            JOINT RightFinger1
                            {
                                OFFSET  -8.364480   0.000000   3.252850
                                CHANNELS 3 Zrotation Xrotation Yrotation
                                JOINT RightFinger11
                                {
                                    OFFSET  -4.646930   0.000000   0.000000
                                    CHANNELS 3 Zrotation Xrotation Yrotation
                                    JOINT RightFinger12
                                    {
                                        OFFSET  -2.323470   0.000000   0.000000
                                        CHANNELS 3 Zrotation Xrotation Yrotation
                                        End Site
                                        {
                                            OFFSET  -2.273050   0.000000   0.000000
                                        }
                                    }
                                }
                            }
                            JOINT RightFinger2
                            {
                                OFFSET  -8.364480   0.000000   1.078090
                                CHANNELS 3 Zrotation Xrotation Yrotation
                                JOINT RightFinger21
                                {
                                    OFFSET  -5.111610   0.000000   0.000000
                                    CHANNELS 3 Zrotation Xrotation Yrotation
                                    JOINT RightFinger22
                                    {
                                        OFFSET  -2.788160   0.000000   0.000000
                                        CHANNELS 3 Zrotation Xrotation Yrotation
                                        End Site
                                        {
                                            OFFSET  -2.727660   0.000000   0.000000
                                        }
                                    }
                                }
                            }
                            JOINT RightFinger3
                            {
                                OFFSET  -7.899780   0.000000  -1.078090
                                CHANNELS 3 Zrotation Xrotation Yrotation
                                JOINT RightFinger31
                                {
                                    OFFSET  -4.646920   0.000000   0.000000
                                    CHANNELS 3 Zrotation Xrotation Yrotation
                                    JOINT RightFinger32
                                    {
                                        OFFSET  -2.323470   0.000000   0.000000
                                        CHANNELS 3 Zrotation Xrotation Yrotation
                                        End Site
                                        {
                                            OFFSET  -2.273050   0.000000   0.000000
                                        }
                                    }
                                }
                            }
                            JOINT RightFinger4
                            {
                                OFFSET  -7.435090   0.000000  -3.252850
                                CHANNELS 3 Zrotation Xrotation Yrotation
                                JOINT RightFinger41
                                {
                                    OFFSET  -3.717550   0.000000   0.000000
                                    CHANNELS 3 Zrotation Xrotation Yrotation
                                    JOINT RightFinger42
                                    {
                                        OFFSET  -1.858770   0.000000   0.000000
                                        CHANNELS 3 Zrotation Xrotation Yrotation
                                        End Site
                                        {
                                            OFFSET  -1.818440   0.000000   0.000000
                                        }
                                    }
                                }
                            }
                        }
                    }
                }
            }
        }
    }
    JOINT LeftHip
    {
        OFFSET   9.783010   0.000000   0.000000
        CHANNELS 3 Zrotation Xrotation Yrotation
        JOINT LeftKnee
        {
            OFFSET   0.000070 -41.789100   0.000028
            CHANNELS 3 Zrotation Xrotation Yrotation
            JOINT LeftAnkle
            {
                OFFSET   0.000087 -41.133200  -0.000100
                CHANNELS 3 Zrotation Xrotation Yrotation
                JOINT LeftToe
                {
                    OFFSET   0.000000  -6.358960  14.674500
                    CHANNELS 3 Zrotation Xrotation Yrotation
                    End Site
                    {
                        OFFSET   0.000000   0.000000   3.913200
                    }
                }
            }
        }
    }
    JOINT RightHip
    {
        OFFSET  -9.783020   0.000000   0.000000
        CHANNELS 3 Zrotation Xrotation Yrotation
        JOINT RightKnee
        {
            OFFSET   0.000044 -41.789100  -0.000870
            CHANNELS 3 Zrotation Xrotation Yrotation
            JOINT RightAnkle
            {
                OFFSET  -0.000090 -41.133200  -0.000245
                CHANNELS 3 Zrotation Xrotation Yrotation
                JOINT RightToe
                {
                    OFFSET   0.000000  -6.358960  14.674500
                    CHANNELS 3 Zrotation Xrotation Yrotation
                    End Site
                    {
                        OFFSET   0.000000   0.000000   3.913200
                    }
                }
            }
        }
    }
}
MOTION
Frames: 4
Frame Time:   0.016667
  4.777950  89.873400   1.247520  -0.986067 -15.608600   1.671280  -1.010410   9.104560   2.514880  -2.478100  18.153200   5.296250  -0.564354  -0.336051   0.000605  -0.927658  -0.681452  -7.476040  -2.895560   1.718900  -0.631697 -48.902400 -22.900600 -21.730900  28.483200  -6.171410 -41.462800  -3.046530  35.827300   6.055800  47.300900  34.013200 -71.051600 -15.396200   0.001298   0.000327  -2.698080  -0.005410  -0.001477  -9.378750   0.752208  -4.707070  -7.696140  -0.015423   0.000572  -5.387300  -0.010723  -0.000452 -10.468300   0.844166  -4.669850 -10.504000  -0.008092   0.003461  -6.995690  -0.005603   0.001650  -7.079680  -0.136824   0.966219  -7.079680  -0.011421   0.003923  -4.715050  -0.007781   0.012592 -11.580400  -1.188600   5.733030 -17.458500  -0.010603   0.001367 -11.627400  -0.007050   0.006119   6.136510   4.507740   4.794230  51.887900 -27.196900  22.438000 -26.712300 -12.408700  28.429300  -0.968901  36.319700 -23.695400 -47.965100  25.709100  51.543400   8.948650  -0.021042   0.003397  -0.525684  -0.010452   0.002862   9.923390  -0.831711  -4.624210   8.148800  -0.009500   0.008801   5.704150  -0.006187   0.001429   8.029700  -0.676387  -4.641600   8.059400  -0.011899   0.005599   5.367570  -0.007417  -0.000990   7.375910  -0.646430  -4.857210   7.405230  -0.009817   0.007569   4.931880  -0.006133   0.007649   8.848390  -1.109940  -7.041990  13.376800  -0.004910   0.005417   8.908960  -0.002738   0.003805  -1.437180  16.360800   2.999080  -1.099480   0.590660   9.606520  -2.642520  -3.849220   5.539480  -0.000000   0.000000   0.000000   1.151390  13.345100  -8.870090  -2.179320  11.810500  -9.675050  -6.459230  -4.567190   1.404650   0.000000   0.000000   0.000000
  4.770500  89.879300   1.219420  -1.003010 -15.431300   1.674160  -1.002580   9.034710   2.511120  -2.457600  18.014000   5.284680  -0.563928  -0.410477   0.000669  -0.927082  -0.832213  -7.410920  -2.846790   1.712550  -0.520586 -49.004900 -22.137000 -21.700600  28.313300  -6.153400 -41.216000  -1.327090  35.311500   4.848370  47.494900  34.347300 -71.526500 -15.944200  -0.003458   0.006908  -2.972070  -0.005591   0.002653 -11.079700   1.061300  -5.531300  -9.097860  -0.023526   0.003804  -6.368500  -0.016654   0.000592 -12.075600   0.974020  -4.689540 -12.111200  -0.018611   0.006477  -8.066100  -0.013066   0.004547  -8.634740  -0.109227   0.617542  -8.630920  -0.016933   0.007993  -5.748190  -0.012135   0.012844 -12.557300  -1.229330   5.497930 -18.921500  -0.020030   0.005290 -12.601700  -0.013930   0.006372   6.218200   4.421110   4.785930  51.705600 -26.585000  21.966200 -26.387600 -12.125800  28.616700  -2.346180  36.384400 -22.841200 -47.521000  25.793100  53.152400  10.334900  -0.043000   0.000819   0.167428  -0.021984   0.001786  11.306800  -0.822435  -3.923780   9.274060  -0.020694   0.009021   6.491820  -0.013425   0.001451   9.329570  -0.671268  -3.920040   9.352450  -0.023686   0.005723   6.228720  -0.014280  -0.001113   8.861980  -0.715101  -4.378760   8.888990  -0.024739   0.007562   5.920060  -0.015243   0.010209   9.676500  -1.200940  -6.801150  14.621200  -0.027951   0.010530   9.737660  -0.016509   0.010257  -1.412980  16.172900   2.998500  -1.090730   0.539233   9.599850  -2.670950  -3.790060   5.528840   0.000000   0.000000   0.000000   1.164800  13.236300  -8.880680  -2.158320  11.630200  -9.740010  -6.468600  -4.471050   1.484150   0.000000   0.000000   0.000000
  4.754940  89.884800   1.192400  -1.021690 -15.242500   1.673260  -0.994165   8.960240   2.502070  -2.434380  17.865800   5.261370  -0.562812  -0.490499   0.000736  -0.924905  -0.994322  -7.329030  -2.772550   1.690500  -0.395041 -49.165500 -21.366700 -21.620000  27.958600  -6.029630 -40.974800   0.596331  34.553300   3.524020  47.419300  34.639300 -72.029300 -16.631600  -0.010061   0.018675  -3.315780  -0.005692   0.008932 -12.919000   1.449780  -6.392120 -10.620600  -0.034595   0.010518  -7.434410  -0.025075   0.003481 -13.828800   1.143110  -4.709320 -13.865400  -0.033203   0.013040  -9.234380  -0.023342   0.009139 -10.255600  -0.038663   0.176779 -10.249000  -0.024110   0.014563  -6.825860  -0.017305   0.012990 -13.653100  -1.240600   5.074530 -20.558000  -0.032608   0.012864 -13.691600  -0.023250   0.006627   6.308360   4.321260   4.777570  51.435200 -25.776900  21.377200 -25.927400 -11.861800  28.747200  -4.311610  36.270400 -21.585300 -46.793200  25.885800  54.980900  12.172300  -0.068875  -0.006945   1.086140  -0.034602  -0.001488  13.037500  -0.752888  -3.041630  10.679400  -0.035347   0.009139   7.475550  -0.023497   0.001474  10.972800  -0.631536  -3.077550  10.986600  -0.037044   0.005790   7.317060  -0.023773  -0.001246  10.709600  -0.760214  -3.752820  10.731000  -0.044019   0.007514   7.146840  -0.028113   0.011710  10.901100  -1.292500  -6.418020  16.456700  -0.060771   0.015644  10.960100  -0.036911   0.018944  -1.389750  15.970800   3.001150  -1.083320   0.496159   9.585990  -2.697880  -3.736000   5.527030   0.000000   0.000000  -0.000000   1.185690  13.113000  -8.879760  -2.138440  11.450300  -9.797510  -6.482640  -4.374720   1.558660  -0.000000   0.000000   0.000000
  4.737080  89.889900   1.163820  -1.051010 -15.030200   1.645020  -0.979673   8.875370   2.487950  -2.396540  17.697200   5.226760  -0.561465  -0.569381   0.000800  -0.926327  -1.154320  -7.232140  -2.731860   1.617110  -0.279878 -49.365600 -20.668700 -21.400400  27.516100  -5.668580 -40.778400   2.643660  33.399000   2.087050  46.651800  34.544100 -72.559700 -17.579800  -0.012691   0.032839  -3.789880  -0.005582   0.013461 -14.812900   1.979290  -7.488260 -12.209700  -0.038356   0.021216  -8.546800  -0.029102   0.010026 -15.628900   1.482550  -5.253340 -15.689200  -0.038972   0.024453 -10.449100  -0.028876   0.013018 -11.800700   0.105566  -0.489254 -11.797800  -0.026054   0.020522  -7.857330  -0.019715   0.012973 -14.881600  -1.238510   4.556770 -22.399600  -0.038958   0.023754 -14.918100  -0.029490   0.006887   6.401300   4.198030   4.810910  50.953100 -24.631200  20.624100 -25.250700 -11.692000  28.710800  -7.155680  35.778800 -19.729100 -45.611300  26.126200  56.979300  14.567500  -0.085803  -0.022784   2.283730  -0.043904  -0.008045  15.049500  -0.561999  -1.946080  12.312500  -0.042386   0.007092   8.618740  -0.028573   0.001504  12.908000  -0.523099  -2.172800  12.912500  -0.043233   0.002493   8.599730  -0.028304  -0.001319  12.841600  -0.692724  -2.867840  12.852300  -0.054111   0.004635   8.559660  -0.035139   0.010417  12.684000  -1.328400  -5.723230  19.119700  -0.080574   0.013733  12.733700  -0.049660   0.021931  -1.358100  15.743800   3.023450  -1.076410   0.462341   9.564610  -2.725630  -3.689680   5.536930   0.000000   0.000000   0.000000   1.215730  12.953600  -8.856930  -2.121580  11.282600  -9.845870  -6.501460  -4.277790   1.619990  -0.000000   0.000000   0.000000
